<svg xmlns="http://www.w3.org/2000/svg" viewBox="0 0 212.51 202.45"><defs><style>.cls-1{fill:#fff;}.cls-2{fill:#efefef;}</style></defs><g id="Layer_2" data-name="Layer 2"><g id="Layer_1-2" data-name="Layer 1"><rect x="149.05" y="111.96" width="7.32" height="20.05"/><circle class="cls-1" cx="151.41" cy="87.57" r="29.21"/><path d="M151.41,117.29A29.75,29.75,0,0,1,121.7,87.57c0-1.26,0-2.51,0-3.73-.11-7.9-.21-14.73,4.49-19.5,4.36-4.42,12.38-6.48,25.26-6.48,29.71,0,29.71,13.77,29.71,29.71A29.75,29.75,0,0,1,151.41,117.29Zm0-58.43c-12.59,0-20.39,2-24.55,6.18-4.4,4.47-4.31,11.11-4.2,18.79,0,1.22,0,2.47,0,3.74a28.71,28.71,0,1,0,57.42,0C180.12,71.53,180.12,58.86,151.41,58.86Z"/><circle cx="116.99" cy="197.24" r="4.71"/><circle cx="138.72" cy="197.24" r="4.71"/><circle cx="159.75" cy="197.24" r="4.71"/><rect x="137.15" y="140.19" width="3.15" height="56.19"/><polygon points="116.99 192.53 138.72 187.06 159.75 192.53 159.75 194.33 116.99 194.33 116.99 192.53"/><rect class="cls-1" x="110.79" y="129.66" width="55.1" height="13.47" rx="6"/><path d="M159.89,143.62h-43.1a6.5,6.5,0,0,1-6.5-6.5v-1.46a6.5,6.5,0,0,1,6.5-6.5h43.1a6.5,6.5,0,0,1,6.5,6.5v1.46A6.5,6.5,0,0,1,159.89,143.62Zm-43.1-13.46a5.5,5.5,0,0,0-5.5,5.5v1.46a5.5,5.5,0,0,0,5.5,5.5h43.1a5.5,5.5,0,0,0,5.5-5.5v-1.46a5.5,5.5,0,0,0-5.5-5.5Z"/><rect class="cls-1" x="31.74" y="110.03" width="3.91" height="91.92"/><path d="M35.65,202.45H31.74a.51.51,0,0,1-.5-.5V110a.5.5,0,0,1,.5-.5h3.91a.5.5,0,0,1,.5.5V202A.5.5,0,0,1,35.65,202.45Zm-3.41-1h2.91V110.53H32.24Z"/><rect class="cls-1" x="63.53" y="110.03" width="3.91" height="91.92"/><path d="M67.44,202.45H63.53a.5.5,0,0,1-.5-.5V110a.5.5,0,0,1,.5-.5h3.91a.5.5,0,0,1,.5.5V202A.51.51,0,0,1,67.44,202.45Zm-3.41-1h2.91V110.53H64Z"/><path d="M212,202.45H3.94a.5.5,0,0,1-.5-.5.5.5,0,0,1,.5-.5H212a.5.5,0,0,1,.5.5A.5.5,0,0,1,212,202.45Z"/><polyline class="cls-1" points="92.2 92.55 105.95 74.53 117.13 81.09 104.6 96.41"/><path d="M104.6,96.91a.56.56,0,0,1-.32-.11.52.52,0,0,1-.07-.71l12.17-14.86-10.3-6L92.6,92.86a.5.5,0,0,1-.7.09.51.51,0,0,1-.1-.7l13.76-18a.49.49,0,0,1,.65-.13l11.18,6.56a.53.53,0,0,1,.24.34.55.55,0,0,1-.11.41L105,96.73A.51.51,0,0,1,104.6,96.91Z"/><path class="cls-1" d="M93.45,93.29,66.65,77a7.38,7.38,0,0,1-1-.75c-.78-.81-3-3.53-4.75-4.58a.55.55,0,0,0-.8.69c.46,1,1.39,2.34,1.33,2.79,0,0-.08,1-1.58.16-1.7-.93-5.46-3.18-7.64-4.76a.47.47,0,0,0-.62.71,57.68,57.68,0,0,0,6.66,5.5l-.19,0c-2.3-1.29-6.44-3.84-8.54-5.32a.47.47,0,0,0-.61.72,63.92,63.92,0,0,0,7.47,6.17.56.56,0,0,0,0,.12c-1.91-1.07-4.87-3-6.74-4.33a.47.47,0,0,0-.61.71,59.26,59.26,0,0,0,7.09,5.81s0,.1,0,.15a15.2,15.2,0,0,1-3.84-2.22c-.47-.35-1.1.44-.66.84a72.38,72.38,0,0,0,6.81,5.36l2.34,1.64,29.2,19.18c3.61,2.34,6.62,1.14,9.75-3.51l4.92-5.69"/><path d="M93.35,107.28A6.79,6.79,0,0,1,89.66,106L60.46,86.85,58.1,85.2a73.62,73.62,0,0,1-6.86-5.4,1,1,0,0,1-.05-1.4,1,1,0,0,1,.59-.37c-1.08-.89-2.2-1.87-3.15-2.83a1,1,0,0,1,1-1.59c-.4-.36-.77-.72-1.12-1.08a1,1,0,0,1,1.24-1.48c.77.54,1.79,1.21,2.87,1.9-.5-.45-1-.91-1.43-1.36a1,1,0,0,1,1.26-1.47,87.56,87.56,0,0,0,7.59,4.73c.63.35.83.26.83.26a5.23,5.23,0,0,0-.61-1.3,12.79,12.79,0,0,1-.66-1.26,1,1,0,0,1,.26-1.22,1.05,1.05,0,0,1,1.25-.11,23.67,23.67,0,0,1,4.21,4c.26.3.48.54.64.71h0a6.47,6.47,0,0,0,.91.67l26.8,16.31a.5.5,0,1,1-.52.85l-26.8-16.3a6.94,6.94,0,0,1-1.09-.82l-.69-.75a22.94,22.94,0,0,0-4-3.77l-.08.07c.17.37.4.79.62,1.18.52.91.8,1.45.75,1.88a1,1,0,0,1-.54.79,1.84,1.84,0,0,1-1.78-.26c-1.79-1-5.56-3.25-7.7-4.8a65.06,65.06,0,0,0,6.63,5.41.5.5,0,0,1-.21.9l-.19,0a.44.44,0,0,1-.32-.06c-2.24-1.24-6.39-3.79-8.59-5.34a71.77,71.77,0,0,0,7.44,6.07.5.5,0,0,1,.18.58.63.63,0,0,1-.32.36.52.52,0,0,1-.44,0c-1.9-1.06-4.87-3-6.78-4.36a66.86,66.86,0,0,0,7.05,5.71.52.52,0,0,1,.22.37v.14a.51.51,0,0,1-.18.44.5.5,0,0,1-.47.09A16,16,0,0,1,52,79s0,.07,0,.1a77.67,77.67,0,0,0,6.74,5.28L61,86,90.2,105.19c3.32,2.15,6,1.14,9.06-3.37l5-5.74a.5.5,0,1,1,.76.66l-4.92,5.68C97.88,105.67,95.69,107.28,93.35,107.28Z"/><path class="cls-1" d="M96.26,101.11s-2.63-.11-2.13.91,1.2-.13,1.2-.13"/><path d="M94.62,102.94h0a1.09,1.09,0,0,1-.9-.7.9.9,0,0,1,0-.94c.46-.7,2-.72,2.57-.69a.5.5,0,0,1,.48.52.51.51,0,0,1-.52.48,4,4,0,0,0-.49,0,.52.52,0,0,1,0,.55C95.67,102.29,95.24,102.94,94.62,102.94Zm.22-1.21a.65.65,0,0,0-.3.13c.1.06.14.09.14.1A1,1,0,0,1,94.84,101.73Z"/><path d="M105.64,75.15s.42,7.75,6,12.61l4.26-5.2Z"/><path class="cls-1" d="M135.37,50.73c-10.3-6-17.73,4-17.73,4S108.38,64,103.19,72.19c0,0,3.92,8.11,15,11,0,0,1.09.62,7.33-9.63"/><path d="M118.21,83.66a.49.49,0,0,1-.23,0c-11.11-2.88-15.07-10.87-15.24-11.21l-.12-.25.15-.23c5.16-8.12,14.43-17.43,14.52-17.53s7.76-10.21,18.33-4.1l-.5.87a11.7,11.7,0,0,0-12.2-.24,16.67,16.67,0,0,0-4.87,4.13c-.14.14-9.15,9.19-14.28,17.16A23.22,23.22,0,0,0,118.2,82.63c.31-.14,1.9-1.23,6.86-9.38l.86.52C120.57,82.55,118.86,83.66,118.21,83.66Z"/><path class="cls-1" d="M79.39,168.6l-.68,24.13V201a.51.51,0,0,1-.5.5H50.44a.51.51,0,0,1-.51-.54c.14-1.23,1.48-4.17,11.19-4.7l.24-.07a5.92,5.92,0,0,0,2.72-1.88,6,6,0,0,0,1.36-4L66,165A20.81,20.81,0,0,0,79.39,168.6Z"/><path d="M78.21,202H50.44a1,1,0,0,1-.75-.33,1,1,0,0,1-.25-.76c.18-1.69,1.93-4.6,11.59-5.14l.18-.06A5.3,5.3,0,0,0,63.69,194a5.53,5.53,0,0,0,1.25-3.69l.6-25.35a.52.52,0,0,1,.27-.43.51.51,0,0,1,.51,0,20.48,20.48,0,0,0,13,3.54.49.49,0,0,1,.4.12.52.52,0,0,1,.17.39l-.68,24.12V201A1,1,0,0,1,78.21,202ZM66.52,165.89l-.58,24.43a6.48,6.48,0,0,1-1.48,4.33,6.31,6.31,0,0,1-2.94,2l-.26.08-.11,0c-9.58.53-10.63,3.39-10.72,4.25H78.21v-8.29l.66-23.58A21.32,21.32,0,0,1,66.52,165.89Z"/><path d="M78.71,196.28V201a.51.51,0,0,1-.5.5H50.44a.51.51,0,0,1-.51-.54c.14-1.23,1.48-4.17,11.19-4.7l.24-.07a5.92,5.92,0,0,0,2.72-1.88h0S68.73,199.66,78.71,196.28Z"/><path d="M78.21,202H50.44a1,1,0,0,1-.75-.33,1,1,0,0,1-.25-.76c.18-1.69,1.93-4.6,11.59-5.14l.18-.06A5.3,5.3,0,0,0,63.69,194l.15-.18h.46l.16.17c.18.21,4.57,5,14.09,1.81l.66-.23V201A1,1,0,0,1,78.21,202Zm-14.11-7a6.21,6.21,0,0,1-2.58,1.63l-.37.1c-9.58.53-10.63,3.39-10.72,4.25H78.21V197C70,199.51,65.42,196.25,64.1,195.05Z"/><path d="M78.71,187.06s-11.23,3.74-13.23,1.54v-2.75l13.45-1Z"/><path class="cls-1" d="M133.65,106.78,76.53,119.36c-5.55,1.14-8.88,4.08-8.83,9l-8.64,55.68,1.57.27A60.65,60.65,0,0,0,82,184.14l2-.37,6.77-42.93L136.22,136s13.54,0,19.54-16V106.7Z"/><path d="M70.82,185.68a61.2,61.2,0,0,1-10.27-.87l-2.06-.35,8.72-56.17c-.06-4.88,3.13-8.17,9.22-9.42l57.22-12.59,22.61-.08,0,14c-3.16,8.44-8.41,12.44-12.27,14.31a19.48,19.48,0,0,1-7.74,2.06L91.16,141.3l-6.77,42.9-2.33.43A60.92,60.92,0,0,1,70.82,185.68Zm-11.19-2,1.09.18a59.64,59.64,0,0,0,21.15-.17l1.65-.31,6.77-43,45.88-4.85a18.91,18.91,0,0,0,7.4-2c3.66-1.79,8.66-5.61,11.69-13.66V107.2l-21.56.08L76.64,119.84c-3.89.81-8.5,2.94-8.44,8.52Z"/><path d="M90.73,141.34h-.08L88,140.94a.5.5,0,0,1,.14-1l2.68.4a.5.5,0,0,1-.07,1Z"/><path d="M115.85,106.43s4.12,5.83,21.49,4.78l-31.65,7.86a10,10,0,0,0-7.18,12l1.87,8.89,24.76-6.21,17.73-24.95S121.1,100.46,115.85,106.43Z"/><path class="cls-1" d="M129.32,166.76l9.91,25.52,3.64,8.74a.51.51,0,0,1-.51.5H112.43a.5.5,0,0,1-.5-.54c.13-1.23,1.47-4.17,11.18-4.7l.24-.07a12.34,12.34,0,0,0,2.89-.89c2.08-1.27.9-3,.11-5L114.9,163.14A23.36,23.36,0,0,0,129.32,166.76Z"/><path d="M142.36,202H112.43a1,1,0,0,1-.75-.33,1,1,0,0,1-.25-.76c.18-1.69,1.93-4.6,11.59-5.14l.18-.06a11.06,11.06,0,0,1,1.2-.3,4.63,4.63,0,0,0,1.57-.53c1.36-.83,1-1.73.28-3.54-.13-.28-.25-.58-.37-.88l-11.45-27.15a.51.51,0,0,1,.15-.58.49.49,0,0,1,.6,0,23.05,23.05,0,0,0,14.08,3.53.51.51,0,0,1,.53.32l9.9,25.52,3.64,8.72a.65.65,0,0,1,0,.2A1,1,0,0,1,142.36,202ZM116,164.39l10.84,25.72c.12.3.24.58.36.86.69,1.62,1.48,3.47-.67,4.78a5.76,5.76,0,0,1-1.9.66,8.24,8.24,0,0,0-1.09.27l-.26.08-.11,0c-9.58.53-10.62,3.39-10.72,4.25h29.91l-3.56-8.54L129,167.29A23.93,23.93,0,0,1,116,164.39Z"/><path d="M140.79,196l2.08,5a.51.51,0,0,1-.51.5H112.43a.5.5,0,0,1-.5-.54c.13-1.23,1.47-4.17,11.18-4.7l.24-.07c1.1-.37,2.2,0,2.89-.89h0S130.8,199.4,140.79,196Z"/><path d="M136.61,186.88s-7.72,2.85-9.72.65l-1.2-2.61,9.73-1Z"/><path class="cls-1" d="M107.1,120a7,7,0,0,0-5.1,8.61l13,48.74,2.37,7.44c7.14,1.84,15.61.86,22.53-1.71h0l-12.39-42.68L146.72,136s17.27-3.76,17.54-16c0,0,.17-8.23-1.26-13.59Z"/><path d="M125.36,186.27a32.57,32.57,0,0,1-8.07-1l-.27-.06-2.44-7.7-13.06-48.77a7.49,7.49,0,0,1,5.46-9.22l56.37-13.77.13.47c1.44,5.37,1.29,13.39,1.28,13.73-.28,12.54-17.76,16.49-17.93,16.52l-18.64,4.3,12.37,42.61-.44.16A42.87,42.87,0,0,1,125.36,186.27Zm-7.55-1.86c6.36,1.57,14.35,1,21.53-1.6l-12.4-42.74,19.67-4.53c.17,0,16.89-3.82,17.15-15.57,0-.08.15-7.74-1.13-13l-55.41,13.54a6.5,6.5,0,0,0-4.74,8l13.06,48.75ZM107.1,120h0Z"/><path d="M127.57,140.94h-.11l-2.42-.5a.5.5,0,0,1,.2-1l2.43.5a.5.5,0,0,1-.1,1Z"/><path class="cls-1" d="M120.37,52.22A11,11,0,0,1,125.3,49l11.64-4.6a11,11,0,0,1,6.61,0L158.19,49c5.12,1.62,8.34,7.69,7.6,13,0,0-2,18.52-2.79,44.35,0,0-23.59,8.86-46.18-1.07-1.49-.66-1.78-24.76,1.72-39.33"/><path d="M140.35,110.5a58.78,58.78,0,0,1-23.73-4.73c-2.62-1.14-1.2-28.94,1.43-39.9a.5.5,0,0,1,1,.23c-3.47,14.43-3,37.44-1.93,38.81C137.77,114,159.64,107,162.51,106c.75-25.37,2.76-43.86,2.78-44.05.74-5.3-2.58-11-7.25-12.48l-14.65-4.6a10.42,10.42,0,0,0-6.3,0l-11.61,4.59a10.54,10.54,0,0,0-4.74,3.06.5.5,0,0,1-.71,0,.5.5,0,0,1,0-.7,11.5,11.5,0,0,1,5.16-3.34L136.76,44a11.5,11.5,0,0,1,6.94,0l14.64,4.61c5.19,1.63,8.75,7.71,7.94,13.56,0,.17-2,18.79-2.78,44.29a.53.53,0,0,1-.33.46A72.62,72.62,0,0,1,140.35,110.5Z"/><polyline class="cls-1" points="146.89 105.38 151.52 83.18 164.44 84.28 159.74 103.51"/><path d="M146.89,105.88l-.11,0a.49.49,0,0,1-.38-.59L151,83.08a.5.5,0,0,1,.53-.4l12.92,1.1a.5.5,0,0,1,.36.21.46.46,0,0,1,.08.41l-4.7,19.23a.5.5,0,0,1-1-.24l4.56-18.66-11.89-1-4.54,21.76A.51.51,0,0,1,146.89,105.88Z"/><path class="cls-1" d="M148.33,105.5l-31.22-3.15a7.47,7.47,0,0,1-1.23-.24c-1-.4-4.25-1.88-6.26-2.09a.56.56,0,0,0-.42,1c.85.72,2.26,1.5,2.41,1.94,0,0,.34.92-1.36.83-1.94-.11-6.31-.52-9-1a.47.47,0,0,0-.24.91,56.82,56.82,0,0,0,8.38,2.09l-.16.12c-2.63-.17-7.46-.69-10-1.11a.47.47,0,0,0-.23.9,63.81,63.81,0,0,0,9.39,2.35.53.53,0,0,1,0,.13c-2.18-.15-5.67-.59-7.93-1a.47.47,0,0,0-.25.91,58.78,58.78,0,0,0,8.9,2.18.57.57,0,0,0,.08.13,15.11,15.11,0,0,1-4.43-.34c-.58-.11-.8.87-.23,1A73.18,73.18,0,0,0,113,113l2.82.47,34.62,4.71c4.27.55,6.47-1.83,7.28-7.38l2-7.25"/><path d="M151.62,118.71a8.57,8.57,0,0,1-1.21-.08l-34.62-4.71-2.84-.47a71.56,71.56,0,0,1-8.52-1.91,1,1,0,0,1-.65-1.24,1.11,1.11,0,0,1,.38-.59,40.74,40.74,0,0,1-4.07-1.19,1,1,0,0,1-.6-1.17,1,1,0,0,1,.85-.71c-.51-.16-1-.33-1.48-.5a.94.94,0,0,1-.6-1.16,1,1,0,0,1,1.09-.71c.93.16,2.13.32,3.4.48-.64-.19-1.27-.4-1.87-.61a1,1,0,0,1-.61-1.16,1,1,0,0,1,1.11-.71c2.56.47,6.89.89,8.89,1,.73,0,.86-.13.86-.13a5.35,5.35,0,0,0-1.11-.91c-.39-.28-.81-.57-1.14-.85a1,1,0,0,1-.29-1.21,1.06,1.06,0,0,1,1.08-.64,22.8,22.8,0,0,1,5.5,1.75l.89.36h0a7.26,7.26,0,0,0,1.11.21L148.38,105a.5.5,0,0,1,.45.55.52.52,0,0,1-.55.45l-31.22-3.15a6.73,6.73,0,0,1-1.33-.27l-1-.38a22.65,22.65,0,0,0-5.21-1.68l-.37.48.32-.38c.32.26.71.53,1.08.79.85.6,1.35,1,1.48,1.37a1.07,1.07,0,0,1-.14,1,1.87,1.87,0,0,1-1.72.53c-2-.11-6.42-.53-9-1a65.52,65.52,0,0,0,8.32,2,.52.52,0,0,1,.4.39.49.49,0,0,1-.21.51l-.16.12a.48.48,0,0,1-.31.08c-2.56-.16-7.4-.67-10-1.11a73.48,73.48,0,0,0,9.33,2.27.5.5,0,0,1,.41.44.66.66,0,0,1-.13.46c-.11.11-.2.23-.39.21-2.16-.14-5.68-.58-8-1a65.63,65.63,0,0,0,8.82,2.1.51.51,0,0,1,.35.25.66.66,0,0,1,.06.53c-.08.15-.18.32-.34.34a16.15,16.15,0,0,1-4.59-.35s0,.08,0,.1a72.25,72.25,0,0,0,8.36,1.85l2.83.47,34.6,4.71c3.92.51,5.93-1.57,6.71-7l2-7.31a.52.52,0,0,1,.62-.36.52.52,0,0,1,.35.62l-2,7.25C157.46,116.18,155.34,118.71,151.62,118.71Z"/><path class="cls-1" d="M154.24,111.34s-2.42,1-1.53,1.74,1-.63,1-.63"/><path d="M153.17,113.79a1.24,1.24,0,0,1-.77-.32.9.9,0,0,1-.38-.85c.11-.83,1.45-1.49,2-1.73a.5.5,0,0,1,.66.26.49.49,0,0,1-.26.65L154,112a.49.49,0,0,1,.25.48c0,.16-.14,1-.73,1.22A.86.86,0,0,1,153.17,113.79Zm.05-1.27a.69.69,0,0,0-.21.24l.17,0S153.2,112.64,153.22,112.52Z"/><path d="M151.5,83.87s3.72,6.82,10.89,8.78l1.6-6.53Z"/><path class="cls-1" d="M155.76,48.26c12.39,2,13.59,14.53,13.59,14.53s0,13.1-2,22.55c0,0-8.5,3-18.34-2.79,0,0-1.21-.32,1.59-12"/><path d="M161.63,86.63A25.32,25.32,0,0,1,148.76,83c-.47-.16-1.46-1.06,1.3-12.57a.51.51,0,0,1,.61-.37.52.52,0,0,1,.37.61c-2.23,9.27-1.87,11.16-1.75,11.48A23.2,23.2,0,0,0,166.87,85c2-9.27,2-22,2-22.16,0-.45-1.31-12.16-13.17-14a.49.49,0,0,1-.41-.57.49.49,0,0,1,.57-.41c12.63,2,14,14.84,14,15s0,13.31-2.06,22.71a.47.47,0,0,1-.32.36A18.57,18.57,0,0,1,161.63,86.63Zm5.67-1.29h0Zm-18.2-3.27Zm0,0Zm0,0Zm0,0Zm0,0h0Zm0,0Zm0,0Zm0,0Zm0,0Z"/><path d="M139.69,57.88a8.35,8.35,0,0,1-6.49-2.56c-3.09-3.42-2.47-8.94-2.44-9.17a.5.5,0,0,1,.56-.44.49.49,0,0,1,.43.56s-.59,5.31,2.2,8.38a7.49,7.49,0,0,0,6,2.23,7.33,7.33,0,0,0,5.82-2.45c2.61-3.2,1.67-8.49,1.66-8.54a.51.51,0,0,1,.41-.58.5.5,0,0,1,.58.4c0,.23,1,5.79-1.88,9.35A8.25,8.25,0,0,1,140,57.88Z"/><path d="M130.71,23s-5.11-2.15-1.47-6.15a3.16,3.16,0,0,1,4.39,1"/><path class="cls-1" d="M136.11,36.22l-1.52,10.85a5.59,5.59,0,0,0,3.82,6.14,5.24,5.24,0,0,0,2.82,0,5.58,5.58,0,0,0,4.11-6.12l-1.27-10.38A10.77,10.77,0,0,1,136.11,36.22Z"/><path d="M139.9,53.93a5.64,5.64,0,0,1-1.63-.24A6.09,6.09,0,0,1,134.1,47l1.61-11.55.63.33a10.3,10.3,0,0,0,7.56.51l.59-.21,1.34,11a6.06,6.06,0,0,1-4.48,6.66A5.55,5.55,0,0,1,139.9,53.93Zm-3.39-17-1.42,10.17a5.09,5.09,0,0,0,3.46,5.59,4.73,4.73,0,0,0,2.56,0,5.05,5.05,0,0,0,3.73-5.57l-1.2-9.79A11.22,11.22,0,0,1,136.51,37Z"/><path d="M144.46,41.15s-3.83.7-5.55-1.16a12.65,12.65,0,0,1-2.41-3.73l7.55,0Z"/><circle class="cls-1" cx="140.76" cy="26.62" r="10.67"/><path d="M140.75,37.79a11.17,11.17,0,1,1,11.17-11.17A11.18,11.18,0,0,1,140.75,37.79Zm0-21.34a10.17,10.17,0,1,0,10.17,10.17A10.18,10.18,0,0,0,140.75,16.45Z"/><path d="M132.18,20.27s-5.87-3.9-2.41-9.15,12,1.41,12,1.41.26-3.85,5.52-2.57c0,0,4.48,1.4,3.33,7.05,0,0,4.74-3.49,5.64,1.33,0,0,1,6-5.13,11.31,0,0-.38-1.64-1-1.31s-1.16,1.25-2.06,1.31-.64-8-.64-8Z"/><path class="cls-1" d="M143.76,15.81a.24.24,0,0,1-.24-.17,5.78,5.78,0,0,0-1.84-2.91.25.25,0,0,1,.29-.41,6.23,6.23,0,0,1,2,3.17.25.25,0,0,1-.17.31Z"/><path class="cls-1" d="M149.17,18.37l-.11,0A.26.26,0,0,1,149,18c1.61-3.33-.28-5.29-.3-5.31a.25.25,0,1,1,.35-.35s2.17,2.23.4,5.88A.24.24,0,0,1,149.17,18.37Z"/><path class="cls-1" d="M133.63,18.94h0c-3.68-.15-3.78-5.3-3.78-5.35a.25.25,0,0,1,.24-.25h0a.25.25,0,0,1,.25.25s.09,4.72,3.3,4.85a.25.25,0,0,1,.24.26A.26.26,0,0,1,133.63,18.94Z"/><path class="cls-1" d="M152.45,27.29a.2.2,0,0,1-.11,0,.25.25,0,0,1-.11-.34c2.42-4.76,2.32-6.73,2.05-7.48-.15-.43-.38-.53-.39-.53a.27.27,0,0,1-.14-.32.26.26,0,0,1,.32-.15,1.31,1.31,0,0,1,.66.77c.39,1,.36,3.19-2.06,7.94A.25.25,0,0,1,152.45,27.29Z"/><path class="cls-1" d="M149.05,29.24s1.17-3.61,2.37-2.62c3,2.46-.92,4.64-.92,4.64"/><path d="M150.5,31.76a.52.52,0,0,1-.44-.25.5.5,0,0,1,.19-.68c.47-.27,1.7-1.17,1.79-2.16A2,2,0,0,0,151.1,27C151,26.94,151,27,151,27c-.42.13-1.08,1.37-1.43,2.45a.5.5,0,0,1-1-.31c.15-.46,1-2.76,2.11-3.1a1.14,1.14,0,0,1,1.06.25A2.9,2.9,0,0,1,153,28.76c-.15,1.73-2.2,2.89-2.29,2.94A.5.5,0,0,1,150.5,31.76Z"/><rect class="cls-1" x="155.79" y="110.03" width="3.91" height="91.92"/><path d="M159.7,202.45h-3.91a.5.5,0,0,1-.5-.5V110a.5.5,0,0,1,.5-.5h3.91a.5.5,0,0,1,.5.5V202A.51.51,0,0,1,159.7,202.45Zm-3.41-1h2.91V110.53h-2.91Z"/><rect class="cls-1" x="195.07" y="110.03" width="3.91" height="91.92"/><path d="M199,202.45h-3.91a.51.51,0,0,1-.5-.5V110a.5.5,0,0,1,.5-.5H199a.5.5,0,0,1,.5.5V202A.5.5,0,0,1,199,202.45Zm-3.41-1h2.91V110.53h-2.91Z"/><rect class="cls-1" x="24.8" y="105.54" width="182.87" height="6.42"/><path d="M207.66,112.46H24.8a.5.5,0,0,1-.5-.5v-6.42a.5.5,0,0,1,.5-.5H207.66a.5.5,0,0,1,.5.5V112A.5.5,0,0,1,207.66,112.46Zm-182.36-1H207.16V106H25.3Z"/><path class="cls-1" d="M46.43,64h49a3.25,3.25,0,0,1,3.25,3.25V99.17A1.63,1.63,0,0,1,97,100.79H44.8a1.63,1.63,0,0,1-1.63-1.63V67.24A3.25,3.25,0,0,1,46.43,64Z"/><path d="M97,101.29H44.8a2.12,2.12,0,0,1-2.12-2.12V67.24a3.76,3.76,0,0,1,3.75-3.76h49a3.76,3.76,0,0,1,3.75,3.76V99.17A2.13,2.13,0,0,1,97,101.29ZM46.43,64.48a2.76,2.76,0,0,0-2.75,2.76V99.17a1.12,1.12,0,0,0,1.12,1.12H97a1.13,1.13,0,0,0,1.13-1.12V67.24a2.76,2.76,0,0,0-2.75-2.76Z"/><rect class="cls-1" x="43.18" y="100.79" width="55.49" height="4.99" rx="1.63"/><path d="M97,106.28H44.8a2.12,2.12,0,0,1-2.12-2.13v-1.73a2.13,2.13,0,0,1,2.12-2.13H97a2.14,2.14,0,0,1,2.13,2.13v1.73A2.13,2.13,0,0,1,97,106.28Zm-52.24-5a1.13,1.13,0,0,0-1.12,1.13v1.73a1.13,1.13,0,0,0,1.12,1.13H97a1.14,1.14,0,0,0,1.13-1.13v-1.73A1.14,1.14,0,0,0,97,101.29Z"/><circle cx="70.92" cy="83.24" r="6.36"/><rect class="cls-1" x="0.5" y="21.18" width="48.59" height="36.69" rx="7"/><path d="M42.09,58.37H7.5A7.5,7.5,0,0,1,0,50.87V28.18a7.51,7.51,0,0,1,7.5-7.5H42.09a7.51,7.51,0,0,1,7.5,7.5V50.87A7.5,7.5,0,0,1,42.09,58.37ZM7.5,21.68A6.51,6.51,0,0,0,1,28.18V50.87a6.51,6.51,0,0,0,6.5,6.5H42.09a6.5,6.5,0,0,0,6.5-6.5V28.18a6.51,6.51,0,0,0-6.5-6.5Z"/><polyline class="cls-1" points="13.81 34.53 8.43 40.55 14.88 45.2"/><path d="M14.88,46.2A1,1,0,0,1,14.3,46L7.84,41.36a1,1,0,0,1-.41-.71,1,1,0,0,1,.25-.77l5.38-6a1,1,0,1,1,1.49,1.34L9.91,40.38l5.56,4a1,1,0,0,1-.59,1.81Z"/><polyline class="cls-1" points="34.93 45.2 40.31 39.19 33.85 34.53"/><path d="M34.93,46.2a1,1,0,0,1-.67-.26,1,1,0,0,1-.08-1.41l4.65-5.18-5.56-4a1,1,0,1,1,1.17-1.62l6.46,4.65a1,1,0,0,1,.41.71,1,1,0,0,1-.25.77l-5.39,6A1,1,0,0,1,34.93,46.2Z"/><line class="cls-1" x1="27.82" y1="29" x2="18.2" y2="51.48"/><path d="M18.2,52.48a.91.91,0,0,1-.39-.08,1,1,0,0,1-.53-1.31L26.9,28.61a1,1,0,0,1,1.31-.53,1,1,0,0,1,.53,1.32L19.12,51.88A1,1,0,0,1,18.2,52.48Z"/><rect class="cls-1" x="61.85" y="0.5" width="48.59" height="36.69" rx="7"/><path d="M103.44,37.69H68.85a7.51,7.51,0,0,1-7.5-7.5V7.5A7.5,7.5,0,0,1,68.85,0h34.59a7.5,7.5,0,0,1,7.5,7.5V30.19A7.51,7.51,0,0,1,103.44,37.69ZM68.85,1a6.51,6.51,0,0,0-6.5,6.5V30.19a6.51,6.51,0,0,0,6.5,6.5h34.59a6.51,6.51,0,0,0,6.5-6.5V7.5a6.51,6.51,0,0,0-6.5-6.5Z"/><path d="M68.85.5h34.59a7,7,0,0,1,7,7v3a0,0,0,0,1,0,0H61.85a0,0,0,0,1,0,0v-3A7,7,0,0,1,68.85.5Z"/><rect class="cls-1" x="70.37" y="4.08" width="33.23" height="3.91" rx="1"/><rect class="cls-2" x="72.16" y="17.85" width="30.46" height="11.77"/><path d="M177.16,146a6.62,6.62,0,0,0-6.11-5.17c-3-.1-5.65,2.07-7,4.61-.75,1.46-2,5.21.43,5.91s3-2.68,3.91-4.09A4.93,4.93,0,0,1,172,145a4.17,4.17,0,0,1,2.15.32,6.3,6.3,0,0,1,1.85,1.48c.57.57,1.45-.32.89-.89a6.82,6.82,0,0,0-3-2,5.71,5.71,0,0,0-3.42.2,6.21,6.21,0,0,0-2.75,2.05,13,13,0,0,0-1.29,2.48c-.23.5-.84,1.88-1.61,1.48s-.38-1.75-.26-2.31a7.64,7.64,0,0,1,4.76-5.48,5.27,5.27,0,0,1,6.66,4c.17.79,1.37.46,1.21-.33Z"/><path d="M180.23,184.61h0a.49.49,0,0,1-.45-.54c.77-8.21-1.42-22.61-2.73-31.21-.33-2.17-.62-4.05-.78-5.36a3.4,3.4,0,0,0-.93-2,.49.49,0,0,1,0-.7.5.5,0,0,1,.71,0,4.44,4.44,0,0,1,1.22,2.55c.16,1.3.45,3.17.78,5.34,1.31,8.65,3.52,23.13,2.73,31.45A.49.49,0,0,1,180.23,184.61Z"/><path d="M185.3,141.36a5.31,5.31,0,0,1,5.8-4.21,7.36,7.36,0,0,1,5.46,5.14,3.92,3.92,0,0,1,.16,2.57c-.42.87-1.25-.06-1.53-.52-.46-.78-.71-1.67-1.16-2.46a6.3,6.3,0,0,0-2.49-2.42,5.83,5.83,0,0,0-3.69-.61,6.35,6.35,0,0,0-3.47,2.1.63.63,0,0,0,.89.89,4.45,4.45,0,0,1,6.93-.33,10.33,10.33,0,0,1,1.63,2.92c.43.89,1.09,1.9,2.16,2,2.71.28,2.2-3.45,1.6-5a8.53,8.53,0,0,0-6.33-5.53,6.56,6.56,0,0,0-7.17,5.11c-.16.79,1,1.12,1.21.33Z"/><path d="M184,184.61a.49.49,0,0,1-.49-.45c-1-10.56-.27-35.63.51-41.79a4.32,4.32,0,0,1,1.22-2.54.49.49,0,1,1,.7.7,3.4,3.4,0,0,0-.93,2c-.78,6.12-1.5,31.06-.51,41.57a.49.49,0,0,1-.45.54Z"/><path d="M182.4,184.61h-.05a.51.51,0,0,1-.45-.54c1-10.15-1.65-40.8-2.51-47.57a3.29,3.29,0,0,0-.93-2,.5.5,0,0,1,0-.7.5.5,0,0,1,.71,0,4.38,4.38,0,0,1,1.22,2.54c.86,6.79,3.47,37.57,2.51,47.79A.49.49,0,0,1,182.4,184.61Z"/><path d="M181.05,151.33a.49.49,0,0,1-.49-.41,84.7,84.7,0,0,0-3-9.61.5.5,0,1,1,.93-.35,81.07,81.07,0,0,1,3,9.78.5.5,0,0,1-.4.58Z"/><path d="M178.7,143.34a.5.5,0,0,1-.49-.38c-.05-.21-1.29-5.13-6.17-4.72-2.78.24-4.71-.12-5.74-1.06a2.13,2.13,0,0,1-.74-1.55,2.32,2.32,0,0,1,.76-1.76c1-1,3-1.35,6-1.17,6.41.41,6.89,9.72,6.91,10.12a.51.51,0,0,1-.43.52Zm-6.07-6.12a6.19,6.19,0,0,1,5.06,2.52c-.65-2.57-2.14-5.83-5.46-6s-4.67.38-5.23.9a1.33,1.33,0,0,0-.44,1,1.14,1.14,0,0,0,.42.81c.56.52,1.88,1.07,5,.81Z"/><path d="M179.89,136.44s-6.61-4.59-4-5.55S180.33,134,179.89,136.44Z"/><path d="M179.89,136.94a.47.47,0,0,1-.28-.09c-1.19-.83-5-3.64-4.82-5.39a1.27,1.27,0,0,1,.93-1,2.67,2.67,0,0,1,2.76.53,6.51,6.51,0,0,1,1.9,5.57.51.51,0,0,1-.3.38A.58.58,0,0,1,179.89,136.94Zm-3.23-5.69a1.66,1.66,0,0,0-.6.11c-.26.1-.27.2-.28.23-.09.7,1.73,2.46,3.67,3.92a5.53,5.53,0,0,0-1.62-3.79A1.75,1.75,0,0,0,176.66,131.25Z"/><path d="M182.21,165.34s1.09-4.64,3.37-3.5S182.21,165.34,182.21,165.34Z"/><path d="M182.21,165.84a.52.52,0,0,1-.33-.12.5.5,0,0,1-.16-.49c.08-.32.78-3.15,2.36-3.89a1.92,1.92,0,0,1,1.73,0,1.22,1.22,0,0,1,.81,1.15c0,1.41-3.24,2.85-4.22,3.26A.43.43,0,0,1,182.21,165.84Zm2.67-3.68a.81.81,0,0,0-.37.09,4,4,0,0,0-1.49,2.17c1.46-.72,2.59-1.53,2.6-1.92,0,0-.07-.11-.26-.21A1,1,0,0,0,184.88,162.16Z"/><path d="M187.91,162.54a1.61,1.61,0,0,1-.6-.12c-.81-.32-1.36-1.25-1.68-2.85-.5-2.57-1.75-2.38-1.8-2.37a.51.51,0,0,1-.53-.24.5.5,0,0,1,0-.58,4.51,4.51,0,0,1,3.21-1.58,3.15,3.15,0,0,1,2.38,1.64c1.81,2.82,1.89,4.45.28,5.62A2.21,2.21,0,0,1,187.91,162.54Zm-3.1-6.14.25.14a4.2,4.2,0,0,1,1.56,2.84c.31,1.6.8,2,1.06,2.11a1.1,1.1,0,0,0,.95-.23c.6-.44,1.5-1.1-.54-4.28a2.19,2.19,0,0,0-1.6-1.18A2.67,2.67,0,0,0,184.81,156.4Z"/><path d="M184,150.2a.49.49,0,0,1-.5-.49L183,128.78a.5.5,0,0,1,.49-.51.54.54,0,0,1,.51.49l.46,20.93a.5.5,0,0,1-.49.51Z"/><path d="M183.48,130.6c-1.93-3.45-9.54-.18-10.47-1.53-1.9-2.74,2.4-2.77,3.69-2.72a14.43,14.43,0,0,1,5.67,1.5h0a9.83,9.83,0,0,0-4.74-2.8c-1.28-.34-5.55-.85-5.67-2.67-.29-4.11,9.36,1.42,10.59,2.76-.65-1.64-4.85-9.31-1.46-10.57,2.81-.95,1.52,7.52,2.63,8.8.93-1.59,2-4.71,3.33-6.12,2.87-3.13,5.45-2.15,3.4.21-1.83,2.11-4.69,5-5.27,8.26,1.58-1.13,2.69-2.48,4.39-3.26,1-.53,5.61-2.2,5.55,0-.17,2.71-8.25,3.1-9.83,5.11,1.41.7,3.63-.55,5.38-.27,1.7.11,4.51,1.51,1.82,2.82-2.58,1.07-6.9-2.26-9,.51"/><path d="M178.94,159.76c-2.15-1.47-5.68,2.69-6.63,2.17-1.93-1.06.6-2.34,1.38-2.69a9.56,9.56,0,0,1,3.79-.78h0a6.51,6.51,0,0,0-3.62-.26c-.86.18-3.53,1.13-4.13.09-1.38-2.34,5.94-1.91,7.06-1.47-.86-.79-5.6-4.08-4-5.82,1.37-1.38,3.1,4,4.13,4.43.09-1.22-.18-3.39.17-4.6.78-2.69,2.58-2.86,2.07-.87-.46,1.78-1.29,4.34-.69,6.42a18.94,18.94,0,0,1,1.63-3.21c.43-.61,2.67-2.95,3.28-1.65.68,1.65-4,4.25-4.31,5.9,1,0,2-1.39,3.1-1.73s3.1-.44,1.89,1.13c-1.2,1.38-4.73.69-5.16,2.94"/><path d="M184.13,148.29c-.39-2.58-5.84-2.32-6.11-3.37-.54-2.13,2.12-1.15,2.91-.82a9.51,9.51,0,0,1,3.15,2.23h0a6.57,6.57,0,0,0-2.27-2.82c-.72-.51-3.24-1.81-2.89-3,.78-2.6,5.45,3,5.9,4.16,0-1.17-.84-6.88,1.55-6.86,1.95.06-.81,5-.42,6,1-.77,2.35-2.44,3.48-3,2.49-1.27,3.85-.07,2,.92-1.61.87-4.05,2-5.16,3.87a18,18,0,0,1,3.46-1c.74-.1,4-.06,3.44,1.27-.74,1.62-5.81,0-7.25.87.7.76,2.36.5,3.38,1.08s2.43,2,.47,2.16-3.74-3-5.68-1.77"/><path class="cls-1" d="M171.56,185h22.14a2,2,0,0,1,2,2v1.07a13.07,13.07,0,0,1-13.07,13.07h-3a10.07,10.07,0,0,1-10.07-10.07V187a2,2,0,0,1,2-2Z"/><path d="M182.62,201.63c-8.62,0-13.56-3.85-13.56-10.57V187a2.5,2.5,0,0,1,2.5-2.5h22.13a2.5,2.5,0,0,1,2.5,2.5v4.06C196.19,197.78,191.25,201.63,182.62,201.63ZM171.56,185.5a1.5,1.5,0,0,0-1.5,1.5v4.06c0,3.58,1.63,9.57,12.56,9.57s12.57-6,12.57-9.57V187a1.5,1.5,0,0,0-1.5-1.5Z"/></g></g></svg>