<svg id="visual" viewBox="0 0 960 300" width="960" height="300" xmlns="http://www.w3.org/2000/svg" xmlns:xlink="http://www.w3.org/1999/xlink" version="1.1"><path d="M0 92L22.8 95C45.7 98 91.3 104 137 101.2C182.7 98.3 228.3 86.7 274 87.8C319.7 89 365.3 103 411.2 109.5C457 116 503 115 548.8 115.8C594.7 116.7 640.3 119.3 686 114.3C731.7 109.3 777.3 96.7 823 90.8C868.7 85 914.3 86 937.2 86.5L960 87L960 0L937.2 0C914.3 0 868.7 0 823 0C777.3 0 731.7 0 686 0C640.3 0 594.7 0 548.8 0C503 0 457 0 411.2 0C365.3 0 319.7 0 274 0C228.3 0 182.7 0 137 0C91.3 0 45.7 0 22.8 0L0 0Z" fill="#ffffff"></path><path d="M0 66L22.8 65.5C45.7 65 91.3 64 137 67.5C182.7 71 228.3 79 274 83.3C319.7 87.7 365.3 88.3 411.2 88.7C457 89 503 89 548.8 85.7C594.7 82.3 640.3 75.7 686 72.7C731.7 69.7 777.3 70.3 823 72.5C868.7 74.7 914.3 78.3 937.2 80.2L960 82L960 0L937.2 0C914.3 0 868.7 0 823 0C777.3 0 731.7 0 686 0C640.3 0 594.7 0 548.8 0C503 0 457 0 411.2 0C365.3 0 319.7 0 274 0C228.3 0 182.7 0 137 0C91.3 0 45.7 0 22.8 0L0 0Z" fill="#f3fefb"></path><path d="M0 77L22.8 71.8C45.7 66.7 91.3 56.3 137 51.8C182.7 47.3 228.3 48.7 274 52.8C319.7 57 365.3 64 411.2 63.5C457 63 503 55 548.8 52.8C594.7 50.7 640.3 54.3 686 55.8C731.7 57.3 777.3 56.7 823 55.7C868.7 54.7 914.3 53.3 937.2 52.7L960 52L960 0L937.2 0C914.3 0 868.7 0 823 0C777.3 0 731.7 0 686 0C640.3 0 594.7 0 548.8 0C503 0 457 0 411.2 0C365.3 0 319.7 0 274 0C228.3 0 182.7 0 137 0C91.3 0 45.7 0 22.8 0L0 0Z" fill="#e6fdf8"></path><path d="M0 58L22.8 53.8C45.7 49.7 91.3 41.3 137 39.5C182.7 37.7 228.3 42.3 274 45.8C319.7 49.3 365.3 51.7 411.2 52.2C457 52.7 503 51.3 548.8 49.2C594.7 47 640.3 44 686 43.5C731.7 43 777.3 45 823 45.2C868.7 45.3 914.3 43.7 937.2 42.8L960 42L960 0L937.2 0C914.3 0 868.7 0 823 0C777.3 0 731.7 0 686 0C640.3 0 594.7 0 548.8 0C503 0 457 0 411.2 0C365.3 0 319.7 0 274 0C228.3 0 182.7 0 137 0C91.3 0 45.7 0 22.8 0L0 0Z" fill="#d9fcf5"></path><path d="M0 26L22.8 26.2C45.7 26.3 91.3 26.7 137 28C182.7 29.3 228.3 31.7 274 30C319.7 28.3 365.3 22.7 411.2 21.5C457 20.3 503 23.7 548.8 25.7C594.7 27.7 640.3 28.3 686 26.7C731.7 25 777.3 21 823 19.7C868.7 18.3 914.3 19.7 937.2 20.3L960 21L960 0L937.2 0C914.3 0 868.7 0 823 0C777.3 0 731.7 0 686 0C640.3 0 594.7 0 548.8 0C503 0 457 0 411.2 0C365.3 0 319.7 0 274 0C228.3 0 182.7 0 137 0C91.3 0 45.7 0 22.8 0L0 0Z" fill="#ccfbf1"></path></svg>