<svg id="visual" viewBox="0 0 960 300" width="960" height="300" xmlns="http://www.w3.org/2000/svg" xmlns:xlink="http://www.w3.org/1999/xlink" version="1.1"><path d="M0 176L22.8 176.2C45.7 176.3 91.3 176.7 137 182.5C182.7 188.3 228.3 199.7 274 202.8C319.7 206 365.3 201 411.2 194C457 187 503 178 548.8 176C594.7 174 640.3 179 686 184.8C731.7 190.7 777.3 197.3 823 200.8C868.7 204.3 914.3 204.7 937.2 204.8L960 205L960 0L937.2 0C914.3 0 868.7 0 823 0C777.3 0 731.7 0 686 0C640.3 0 594.7 0 548.8 0C503 0 457 0 411.2 0C365.3 0 319.7 0 274 0C228.3 0 182.7 0 137 0C91.3 0 45.7 0 22.8 0L0 0Z" fill="#ffffff"></path><path d="M0 181L22.8 180.2C45.7 179.3 91.3 177.7 137 172.7C182.7 167.7 228.3 159.3 274 155C319.7 150.7 365.3 150.3 411.2 150.2C457 150 503 150 548.8 152.7C594.7 155.3 640.3 160.7 686 165.3C731.7 170 777.3 174 823 170.7C868.7 167.3 914.3 156.7 937.2 151.3L960 146L960 0L937.2 0C914.3 0 868.7 0 823 0C777.3 0 731.7 0 686 0C640.3 0 594.7 0 548.8 0C503 0 457 0 411.2 0C365.3 0 319.7 0 274 0C228.3 0 182.7 0 137 0C91.3 0 45.7 0 22.8 0L0 0Z" fill="#f3fefb"></path><path d="M0 103L22.8 109.8C45.7 116.7 91.3 130.3 137 132.7C182.7 135 228.3 126 274 122.5C319.7 119 365.3 121 411.2 120C457 119 503 115 548.8 111.8C594.7 108.7 640.3 106.3 686 106.3C731.7 106.3 777.3 108.7 823 109.3C868.7 110 914.3 109 937.2 108.5L960 108L960 0L937.2 0C914.3 0 868.7 0 823 0C777.3 0 731.7 0 686 0C640.3 0 594.7 0 548.8 0C503 0 457 0 411.2 0C365.3 0 319.7 0 274 0C228.3 0 182.7 0 137 0C91.3 0 45.7 0 22.8 0L0 0Z" fill="#e6fdf8"></path><path d="M0 103L22.8 99.8C45.7 96.7 91.3 90.3 137 89C182.7 87.7 228.3 91.3 274 92.5C319.7 93.7 365.3 92.3 411.2 88.3C457 84.3 503 77.7 548.8 74.7C594.7 71.7 640.3 72.3 686 74.7C731.7 77 777.3 81 823 84.7C868.7 88.3 914.3 91.7 937.2 93.3L960 95L960 0L937.2 0C914.3 0 868.7 0 823 0C777.3 0 731.7 0 686 0C640.3 0 594.7 0 548.8 0C503 0 457 0 411.2 0C365.3 0 319.7 0 274 0C228.3 0 182.7 0 137 0C91.3 0 45.7 0 22.8 0L0 0Z" fill="#d9fcf5"></path><path d="M0 60L22.8 57.3C45.7 54.7 91.3 49.3 137 49.5C182.7 49.7 228.3 55.3 274 54C319.7 52.7 365.3 44.3 411.2 44C457 43.7 503 51.3 548.8 51.2C594.7 51 640.3 43 686 42.3C731.7 41.7 777.3 48.3 823 49.5C868.7 50.7 914.3 46.3 937.2 44.2L960 42L960 0L937.2 0C914.3 0 868.7 0 823 0C777.3 0 731.7 0 686 0C640.3 0 594.7 0 548.8 0C503 0 457 0 411.2 0C365.3 0 319.7 0 274 0C228.3 0 182.7 0 137 0C91.3 0 45.7 0 22.8 0L0 0Z" fill="#ccfbf1"></path></svg>