<svg id="visual" viewBox="0 0 960 100" width="960" height="100" xmlns="http://www.w3.org/2000/svg" xmlns:xlink="http://www.w3.org/1999/xlink" version="1.1"><path d="M0 58L22.8 58C45.7 58 91.3 58 137 60C182.7 62 228.3 66 274 67.2C319.7 68.3 365.3 66.7 411.2 64.3C457 62 503 59 548.8 58.3C594.7 57.7 640.3 59.3 686 61.2C731.7 63 777.3 65 823 66.2C868.7 67.3 914.3 67.7 937.2 67.8L960 68L960 0L937.2 0C914.3 0 868.7 0 823 0C777.3 0 731.7 0 686 0C640.3 0 594.7 0 548.8 0C503 0 457 0 411.2 0C365.3 0 319.7 0 274 0C228.3 0 182.7 0 137 0C91.3 0 45.7 0 22.8 0L0 0Z" fill="#ffffff"></path><path d="M0 60L22.8 59.7C45.7 59.3 91.3 58.7 137 57C182.7 55.3 228.3 52.7 274 51.2C319.7 49.7 365.3 49.3 411.2 49.2C457 49 503 49 548.8 50C594.7 51 640.3 53 686 54.7C731.7 56.3 777.3 57.7 823 56.5C868.7 55.3 914.3 51.7 937.2 49.8L960 48L960 0L937.2 0C914.3 0 868.7 0 823 0C777.3 0 731.7 0 686 0C640.3 0 594.7 0 548.8 0C503 0 457 0 411.2 0C365.3 0 319.7 0 274 0C228.3 0 182.7 0 137 0C91.3 0 45.7 0 22.8 0L0 0Z" fill="#f3fefb"></path><path d="M0 34L22.8 36.2C45.7 38.3 91.3 42.7 137 43.3C182.7 44 228.3 41 274 39.8C319.7 38.7 365.3 39.3 411.2 39C457 38.7 503 37.3 548.8 36.3C594.7 35.3 640.3 34.7 686 34.7C731.7 34.7 777.3 35.3 823 35.5C868.7 35.7 914.3 35.3 937.2 35.2L960 35L960 0L937.2 0C914.3 0 868.7 0 823 0C777.3 0 731.7 0 686 0C640.3 0 594.7 0 548.8 0C503 0 457 0 411.2 0C365.3 0 319.7 0 274 0C228.3 0 182.7 0 137 0C91.3 0 45.7 0 22.8 0L0 0Z" fill="#e6fdf8"></path><path d="M0 34L22.8 32.8C45.7 31.7 91.3 29.3 137 28.8C182.7 28.3 228.3 29.7 274 30.2C319.7 30.7 365.3 30.3 411.2 29C457 27.7 503 25.3 548.8 24.3C594.7 23.3 640.3 23.7 686 24.5C731.7 25.3 777.3 26.7 823 27.8C868.7 29 914.3 30 937.2 30.5L960 31L960 0L937.2 0C914.3 0 868.7 0 823 0C777.3 0 731.7 0 686 0C640.3 0 594.7 0 548.8 0C503 0 457 0 411.2 0C365.3 0 319.7 0 274 0C228.3 0 182.7 0 137 0C91.3 0 45.7 0 22.8 0L0 0Z" fill="#d9fcf5"></path><path d="M0 19L22.8 18.2C45.7 17.3 91.3 15.7 137 15.8C182.7 16 228.3 18 274 17.5C319.7 17 365.3 14 411.2 13.8C457 13.7 503 16.3 548.8 16.3C594.7 16.3 640.3 13.7 686 13.5C731.7 13.3 777.3 15.7 823 16C868.7 16.3 914.3 14.7 937.2 13.8L960 13L960 0L937.2 0C914.3 0 868.7 0 823 0C777.3 0 731.7 0 686 0C640.3 0 594.7 0 548.8 0C503 0 457 0 411.2 0C365.3 0 319.7 0 274 0C228.3 0 182.7 0 137 0C91.3 0 45.7 0 22.8 0L0 0Z" fill="#ccfbf1"></path></svg>